<?xml version="1.0" encoding="utf-8"?>
<svg xmlns="http://www.w3.org/2000/svg" xmlns:xlink="http://www.w3.org/1999/xlink" xml:space="preserve" width="990" height="990" viewBox="0 0 990 990"><g fill="#883192">
<g transform="translate(220,44) scale(3.7766666666667)"><rect width="6" height="6"/></g>
<g transform="translate(264,44) scale(3.7766666666667)"><rect width="6" height="6"/></g>
<g transform="translate(286,44) scale(3.7766666666667)"><rect width="6" height="6"/></g>
<g transform="translate(308,44) scale(3.7766666666667)"><rect width="6" height="6"/></g>
<g transform="translate(330,44) scale(3.7766666666667)"><rect width="6" height="6"/></g>
<g transform="translate(374,44) scale(3.7766666666667)"><rect width="6" height="6"/></g>
<g transform="translate(418,44) scale(3.7766666666667)"><rect width="6" height="6"/></g>
<g transform="translate(462,44) scale(3.7766666666667)"><rect width="6" height="6"/></g>
<g transform="translate(484,44) scale(3.7766666666667)"><rect width="6" height="6"/></g>
<g transform="translate(528,44) scale(3.7766666666667)"><rect width="6" height="6"/></g>
<g transform="translate(572,44) scale(3.7766666666667)"><rect width="6" height="6"/></g>
<g transform="translate(660,44) scale(3.7766666666667)"><rect width="6" height="6"/></g>
<g transform="translate(682,44) scale(3.7766666666667)"><rect width="6" height="6"/></g>
<g transform="translate(704,44) scale(3.7766666666667)"><rect width="6" height="6"/></g>
<g transform="translate(726,44) scale(3.7766666666667)"><rect width="6" height="6"/></g>
<g transform="translate(748,44) scale(3.7766666666667)"><rect width="6" height="6"/></g>
<g transform="translate(242,66) scale(3.7766666666667)"><rect width="6" height="6"/></g>
<g transform="translate(264,66) scale(3.7766666666667)"><rect width="6" height="6"/></g>
<g transform="translate(286,66) scale(3.7766666666667)"><rect width="6" height="6"/></g>
<g transform="translate(308,66) scale(3.7766666666667)"><rect width="6" height="6"/></g>
<g transform="translate(330,66) scale(3.7766666666667)"><rect width="6" height="6"/></g>
<g transform="translate(374,66) scale(3.7766666666667)"><rect width="6" height="6"/></g>
<g transform="translate(396,66) scale(3.7766666666667)"><rect width="6" height="6"/></g>
<g transform="translate(418,66) scale(3.7766666666667)"><rect width="6" height="6"/></g>
<g transform="translate(462,66) scale(3.7766666666667)"><rect width="6" height="6"/></g>
<g transform="translate(484,66) scale(3.7766666666667)"><rect width="6" height="6"/></g>
<g transform="translate(506,66) scale(3.7766666666667)"><rect width="6" height="6"/></g>
<g transform="translate(528,66) scale(3.7766666666667)"><rect width="6" height="6"/></g>
<g transform="translate(550,66) scale(3.7766666666667)"><rect width="6" height="6"/></g>
<g transform="translate(638,66) scale(3.7766666666667)"><rect width="6" height="6"/></g>
<g transform="translate(682,66) scale(3.7766666666667)"><rect width="6" height="6"/></g>
<g transform="translate(242,88) scale(3.7766666666667)"><rect width="6" height="6"/></g>
<g transform="translate(286,88) scale(3.7766666666667)"><rect width="6" height="6"/></g>
<g transform="translate(330,88) scale(3.7766666666667)"><rect width="6" height="6"/></g>
<g transform="translate(352,88) scale(3.7766666666667)"><rect width="6" height="6"/></g>
<g transform="translate(374,88) scale(3.7766666666667)"><rect width="6" height="6"/></g>
<g transform="translate(396,88) scale(3.7766666666667)"><rect width="6" height="6"/></g>
<g transform="translate(418,88) scale(3.7766666666667)"><rect width="6" height="6"/></g>
<g transform="translate(462,88) scale(3.7766666666667)"><rect width="6" height="6"/></g>
<g transform="translate(550,88) scale(3.7766666666667)"><rect width="6" height="6"/></g>
<g transform="translate(572,88) scale(3.7766666666667)"><rect width="6" height="6"/></g>
<g transform="translate(616,88) scale(3.7766666666667)"><rect width="6" height="6"/></g>
<g transform="translate(660,88) scale(3.7766666666667)"><rect width="6" height="6"/></g>
<g transform="translate(682,88) scale(3.7766666666667)"><rect width="6" height="6"/></g>
<g transform="translate(704,88) scale(3.7766666666667)"><rect width="6" height="6"/></g>
<g transform="translate(726,88) scale(3.7766666666667)"><rect width="6" height="6"/></g>
<g transform="translate(242,110) scale(3.7766666666667)"><rect width="6" height="6"/></g>
<g transform="translate(440,110) scale(3.7766666666667)"><rect width="6" height="6"/></g>
<g transform="translate(484,110) scale(3.7766666666667)"><rect width="6" height="6"/></g>
<g transform="translate(506,110) scale(3.7766666666667)"><rect width="6" height="6"/></g>
<g transform="translate(550,110) scale(3.7766666666667)"><rect width="6" height="6"/></g>
<g transform="translate(748,110) scale(3.7766666666667)"><rect width="6" height="6"/></g>
<g transform="translate(220,132) scale(3.7766666666667)"><rect width="6" height="6"/></g>
<g transform="translate(264,132) scale(3.7766666666667)"><rect width="6" height="6"/></g>
<g transform="translate(330,132) scale(3.7766666666667)"><rect width="6" height="6"/></g>
<g transform="translate(352,132) scale(3.7766666666667)"><rect width="6" height="6"/></g>
<g transform="translate(396,132) scale(3.7766666666667)"><rect width="6" height="6"/></g>
<g transform="translate(418,132) scale(3.7766666666667)"><rect width="6" height="6"/></g>
<g transform="translate(440,132) scale(3.7766666666667)"><rect width="6" height="6"/></g>
<g transform="translate(462,132) scale(3.7766666666667)"><rect width="6" height="6"/></g>
<g transform="translate(506,132) scale(3.7766666666667)"><rect width="6" height="6"/></g>
<g transform="translate(528,132) scale(3.7766666666667)"><rect width="6" height="6"/></g>
<g transform="translate(550,132) scale(3.7766666666667)"><rect width="6" height="6"/></g>
<g transform="translate(616,132) scale(3.7766666666667)"><rect width="6" height="6"/></g>
<g transform="translate(660,132) scale(3.7766666666667)"><rect width="6" height="6"/></g>
<g transform="translate(704,132) scale(3.7766666666667)"><rect width="6" height="6"/></g>
<g transform="translate(726,132) scale(3.7766666666667)"><rect width="6" height="6"/></g>
<g transform="translate(748,132) scale(3.7766666666667)"><rect width="6" height="6"/></g>
<g transform="translate(220,154) scale(3.7766666666667)"><rect width="6" height="6"/></g>
<g transform="translate(242,154) scale(3.7766666666667)"><rect width="6" height="6"/></g>
<g transform="translate(264,154) scale(3.7766666666667)"><rect width="6" height="6"/></g>
<g transform="translate(286,154) scale(3.7766666666667)"><rect width="6" height="6"/></g>
<g transform="translate(308,154) scale(3.7766666666667)"><rect width="6" height="6"/></g>
<g transform="translate(396,154) scale(3.7766666666667)"><rect width="6" height="6"/></g>
<g transform="translate(418,154) scale(3.7766666666667)"><rect width="6" height="6"/></g>
<g transform="translate(550,154) scale(3.7766666666667)"><rect width="6" height="6"/></g>
<g transform="translate(594,154) scale(3.7766666666667)"><rect width="6" height="6"/></g>
<g transform="translate(638,154) scale(3.7766666666667)"><rect width="6" height="6"/></g>
<g transform="translate(660,154) scale(3.7766666666667)"><rect width="6" height="6"/></g>
<g transform="translate(682,154) scale(3.7766666666667)"><rect width="6" height="6"/></g>
<g transform="translate(748,154) scale(3.7766666666667)"><rect width="6" height="6"/></g>
<g transform="translate(220,176) scale(3.7766666666667)"><rect width="6" height="6"/></g>
<g transform="translate(264,176) scale(3.7766666666667)"><rect width="6" height="6"/></g>
<g transform="translate(308,176) scale(3.7766666666667)"><rect width="6" height="6"/></g>
<g transform="translate(352,176) scale(3.7766666666667)"><rect width="6" height="6"/></g>
<g transform="translate(396,176) scale(3.7766666666667)"><rect width="6" height="6"/></g>
<g transform="translate(440,176) scale(3.7766666666667)"><rect width="6" height="6"/></g>
<g transform="translate(484,176) scale(3.7766666666667)"><rect width="6" height="6"/></g>
<g transform="translate(528,176) scale(3.7766666666667)"><rect width="6" height="6"/></g>
<g transform="translate(572,176) scale(3.7766666666667)"><rect width="6" height="6"/></g>
<g transform="translate(616,176) scale(3.7766666666667)"><rect width="6" height="6"/></g>
<g transform="translate(660,176) scale(3.7766666666667)"><rect width="6" height="6"/></g>
<g transform="translate(704,176) scale(3.7766666666667)"><rect width="6" height="6"/></g>
<g transform="translate(748,176) scale(3.7766666666667)"><rect width="6" height="6"/></g>
<g transform="translate(330,198) scale(3.7766666666667)"><rect width="6" height="6"/></g>
<g transform="translate(440,198) scale(3.7766666666667)"><rect width="6" height="6"/></g>
<g transform="translate(484,198) scale(3.7766666666667)"><rect width="6" height="6"/></g>
<g transform="translate(528,198) scale(3.7766666666667)"><rect width="6" height="6"/></g>
<g transform="translate(572,198) scale(3.7766666666667)"><rect width="6" height="6"/></g>
<g transform="translate(638,198) scale(3.7766666666667)"><rect width="6" height="6"/></g>
<g transform="translate(660,198) scale(3.7766666666667)"><rect width="6" height="6"/></g>
<g transform="translate(748,198) scale(3.7766666666667)"><rect width="6" height="6"/></g>
<g transform="translate(66,220) scale(3.7766666666667)"><rect width="6" height="6"/></g>
<g transform="translate(88,220) scale(3.7766666666667)"><rect width="6" height="6"/></g>
<g transform="translate(110,220) scale(3.7766666666667)"><rect width="6" height="6"/></g>
<g transform="translate(132,220) scale(3.7766666666667)"><rect width="6" height="6"/></g>
<g transform="translate(154,220) scale(3.7766666666667)"><rect width="6" height="6"/></g>
<g transform="translate(176,220) scale(3.7766666666667)"><rect width="6" height="6"/></g>
<g transform="translate(198,220) scale(3.7766666666667)"><rect width="6" height="6"/></g>
<g transform="translate(330,220) scale(3.7766666666667)"><rect width="6" height="6"/></g>
<g transform="translate(352,220) scale(3.7766666666667)"><rect width="6" height="6"/></g>
<g transform="translate(374,220) scale(3.7766666666667)"><rect width="6" height="6"/></g>
<g transform="translate(396,220) scale(3.7766666666667)"><rect width="6" height="6"/></g>
<g transform="translate(418,220) scale(3.7766666666667)"><rect width="6" height="6"/></g>
<g transform="translate(462,220) scale(3.7766666666667)"><rect width="6" height="6"/></g>
<g transform="translate(484,220) scale(3.7766666666667)"><rect width="6" height="6"/></g>
<g transform="translate(506,220) scale(3.7766666666667)"><rect width="6" height="6"/></g>
<g transform="translate(528,220) scale(3.7766666666667)"><rect width="6" height="6"/></g>
<g transform="translate(550,220) scale(3.7766666666667)"><rect width="6" height="6"/></g>
<g transform="translate(572,220) scale(3.7766666666667)"><rect width="6" height="6"/></g>
<g transform="translate(594,220) scale(3.7766666666667)"><rect width="6" height="6"/></g>
<g transform="translate(638,220) scale(3.7766666666667)"><rect width="6" height="6"/></g>
<g transform="translate(682,220) scale(3.7766666666667)"><rect width="6" height="6"/></g>
<g transform="translate(814,220) scale(3.7766666666667)"><rect width="6" height="6"/></g>
<g transform="translate(836,220) scale(3.7766666666667)"><rect width="6" height="6"/></g>
<g transform="translate(924,220) scale(3.7766666666667)"><rect width="6" height="6"/></g>
<g transform="translate(44,242) scale(3.7766666666667)"><rect width="6" height="6"/></g>
<g transform="translate(88,242) scale(3.7766666666667)"><rect width="6" height="6"/></g>
<g transform="translate(110,242) scale(3.7766666666667)"><rect width="6" height="6"/></g>
<g transform="translate(132,242) scale(3.7766666666667)"><rect width="6" height="6"/></g>
<g transform="translate(264,242) scale(3.7766666666667)"><rect width="6" height="6"/></g>
<g transform="translate(286,242) scale(3.7766666666667)"><rect width="6" height="6"/></g>
<g transform="translate(374,242) scale(3.7766666666667)"><rect width="6" height="6"/></g>
<g transform="translate(396,242) scale(3.7766666666667)"><rect width="6" height="6"/></g>
<g transform="translate(440,242) scale(3.7766666666667)"><rect width="6" height="6"/></g>
<g transform="translate(462,242) scale(3.7766666666667)"><rect width="6" height="6"/></g>
<g transform="translate(484,242) scale(3.7766666666667)"><rect width="6" height="6"/></g>
<g transform="translate(506,242) scale(3.7766666666667)"><rect width="6" height="6"/></g>
<g transform="translate(528,242) scale(3.7766666666667)"><rect width="6" height="6"/></g>
<g transform="translate(550,242) scale(3.7766666666667)"><rect width="6" height="6"/></g>
<g transform="translate(594,242) scale(3.7766666666667)"><rect width="6" height="6"/></g>
<g transform="translate(660,242) scale(3.7766666666667)"><rect width="6" height="6"/></g>
<g transform="translate(704,242) scale(3.7766666666667)"><rect width="6" height="6"/></g>
<g transform="translate(726,242) scale(3.7766666666667)"><rect width="6" height="6"/></g>
<g transform="translate(748,242) scale(3.7766666666667)"><rect width="6" height="6"/></g>
<g transform="translate(792,242) scale(3.7766666666667)"><rect width="6" height="6"/></g>
<g transform="translate(814,242) scale(3.7766666666667)"><rect width="6" height="6"/></g>
<g transform="translate(836,242) scale(3.7766666666667)"><rect width="6" height="6"/></g>
<g transform="translate(880,242) scale(3.7766666666667)"><rect width="6" height="6"/></g>
<g transform="translate(924,242) scale(3.7766666666667)"><rect width="6" height="6"/></g>
<g transform="translate(88,264) scale(3.7766666666667)"><rect width="6" height="6"/></g>
<g transform="translate(110,264) scale(3.7766666666667)"><rect width="6" height="6"/></g>
<g transform="translate(132,264) scale(3.7766666666667)"><rect width="6" height="6"/></g>
<g transform="translate(154,264) scale(3.7766666666667)"><rect width="6" height="6"/></g>
<g transform="translate(176,264) scale(3.7766666666667)"><rect width="6" height="6"/></g>
<g transform="translate(198,264) scale(3.7766666666667)"><rect width="6" height="6"/></g>
<g transform="translate(308,264) scale(3.7766666666667)"><rect width="6" height="6"/></g>
<g transform="translate(330,264) scale(3.7766666666667)"><rect width="6" height="6"/></g>
<g transform="translate(396,264) scale(3.7766666666667)"><rect width="6" height="6"/></g>
<g transform="translate(484,264) scale(3.7766666666667)"><rect width="6" height="6"/></g>
<g transform="translate(528,264) scale(3.7766666666667)"><rect width="6" height="6"/></g>
<g transform="translate(550,264) scale(3.7766666666667)"><rect width="6" height="6"/></g>
<g transform="translate(572,264) scale(3.7766666666667)"><rect width="6" height="6"/></g>
<g transform="translate(594,264) scale(3.7766666666667)"><rect width="6" height="6"/></g>
<g transform="translate(616,264) scale(3.7766666666667)"><rect width="6" height="6"/></g>
<g transform="translate(638,264) scale(3.7766666666667)"><rect width="6" height="6"/></g>
<g transform="translate(660,264) scale(3.7766666666667)"><rect width="6" height="6"/></g>
<g transform="translate(682,264) scale(3.7766666666667)"><rect width="6" height="6"/></g>
<g transform="translate(704,264) scale(3.7766666666667)"><rect width="6" height="6"/></g>
<g transform="translate(748,264) scale(3.7766666666667)"><rect width="6" height="6"/></g>
<g transform="translate(770,264) scale(3.7766666666667)"><rect width="6" height="6"/></g>
<g transform="translate(836,264) scale(3.7766666666667)"><rect width="6" height="6"/></g>
<g transform="translate(66,286) scale(3.7766666666667)"><rect width="6" height="6"/></g>
<g transform="translate(88,286) scale(3.7766666666667)"><rect width="6" height="6"/></g>
<g transform="translate(154,286) scale(3.7766666666667)"><rect width="6" height="6"/></g>
<g transform="translate(198,286) scale(3.7766666666667)"><rect width="6" height="6"/></g>
<g transform="translate(220,286) scale(3.7766666666667)"><rect width="6" height="6"/></g>
<g transform="translate(242,286) scale(3.7766666666667)"><rect width="6" height="6"/></g>
<g transform="translate(264,286) scale(3.7766666666667)"><rect width="6" height="6"/></g>
<g transform="translate(396,286) scale(3.7766666666667)"><rect width="6" height="6"/></g>
<g transform="translate(418,286) scale(3.7766666666667)"><rect width="6" height="6"/></g>
<g transform="translate(440,286) scale(3.7766666666667)"><rect width="6" height="6"/></g>
<g transform="translate(462,286) scale(3.7766666666667)"><rect width="6" height="6"/></g>
<g transform="translate(484,286) scale(3.7766666666667)"><rect width="6" height="6"/></g>
<g transform="translate(550,286) scale(3.7766666666667)"><rect width="6" height="6"/></g>
<g transform="translate(572,286) scale(3.7766666666667)"><rect width="6" height="6"/></g>
<g transform="translate(638,286) scale(3.7766666666667)"><rect width="6" height="6"/></g>
<g transform="translate(660,286) scale(3.7766666666667)"><rect width="6" height="6"/></g>
<g transform="translate(704,286) scale(3.7766666666667)"><rect width="6" height="6"/></g>
<g transform="translate(726,286) scale(3.7766666666667)"><rect width="6" height="6"/></g>
<g transform="translate(748,286) scale(3.7766666666667)"><rect width="6" height="6"/></g>
<g transform="translate(770,286) scale(3.7766666666667)"><rect width="6" height="6"/></g>
<g transform="translate(792,286) scale(3.7766666666667)"><rect width="6" height="6"/></g>
<g transform="translate(836,286) scale(3.7766666666667)"><rect width="6" height="6"/></g>
<g transform="translate(858,286) scale(3.7766666666667)"><rect width="6" height="6"/></g>
<g transform="translate(924,286) scale(3.7766666666667)"><rect width="6" height="6"/></g>
<g transform="translate(110,308) scale(3.7766666666667)"><rect width="6" height="6"/></g>
<g transform="translate(132,308) scale(3.7766666666667)"><rect width="6" height="6"/></g>
<g transform="translate(154,308) scale(3.7766666666667)"><rect width="6" height="6"/></g>
<g transform="translate(176,308) scale(3.7766666666667)"><rect width="6" height="6"/></g>
<g transform="translate(198,308) scale(3.7766666666667)"><rect width="6" height="6"/></g>
<g transform="translate(220,308) scale(3.7766666666667)"><rect width="6" height="6"/></g>
<g transform="translate(286,308) scale(3.7766666666667)"><rect width="6" height="6"/></g>
<g transform="translate(352,308) scale(3.7766666666667)"><rect width="6" height="6"/></g>
<g transform="translate(396,308) scale(3.7766666666667)"><rect width="6" height="6"/></g>
<g transform="translate(418,308) scale(3.7766666666667)"><rect width="6" height="6"/></g>
<g transform="translate(462,308) scale(3.7766666666667)"><rect width="6" height="6"/></g>
<g transform="translate(484,308) scale(3.7766666666667)"><rect width="6" height="6"/></g>
<g transform="translate(528,308) scale(3.7766666666667)"><rect width="6" height="6"/></g>
<g transform="translate(594,308) scale(3.7766666666667)"><rect width="6" height="6"/></g>
<g transform="translate(616,308) scale(3.7766666666667)"><rect width="6" height="6"/></g>
<g transform="translate(638,308) scale(3.7766666666667)"><rect width="6" height="6"/></g>
<g transform="translate(682,308) scale(3.7766666666667)"><rect width="6" height="6"/></g>
<g transform="translate(726,308) scale(3.7766666666667)"><rect width="6" height="6"/></g>
<g transform="translate(748,308) scale(3.7766666666667)"><rect width="6" height="6"/></g>
<g transform="translate(814,308) scale(3.7766666666667)"><rect width="6" height="6"/></g>
<g transform="translate(858,308) scale(3.7766666666667)"><rect width="6" height="6"/></g>
<g transform="translate(880,308) scale(3.7766666666667)"><rect width="6" height="6"/></g>
<g transform="translate(902,308) scale(3.7766666666667)"><rect width="6" height="6"/></g>
<g transform="translate(66,330) scale(3.7766666666667)"><rect width="6" height="6"/></g>
<g transform="translate(154,330) scale(3.7766666666667)"><rect width="6" height="6"/></g>
<g transform="translate(242,330) scale(3.7766666666667)"><rect width="6" height="6"/></g>
<g transform="translate(286,330) scale(3.7766666666667)"><rect width="6" height="6"/></g>
<g transform="translate(308,330) scale(3.7766666666667)"><rect width="6" height="6"/></g>
<g transform="translate(330,330) scale(3.7766666666667)"><rect width="6" height="6"/></g>
<g transform="translate(352,330) scale(3.7766666666667)"><rect width="6" height="6"/></g>
<g transform="translate(374,330) scale(3.7766666666667)"><rect width="6" height="6"/></g>
<g transform="translate(396,330) scale(3.7766666666667)"><rect width="6" height="6"/></g>
<g transform="translate(418,330) scale(3.7766666666667)"><rect width="6" height="6"/></g>
<g transform="translate(462,330) scale(3.7766666666667)"><rect width="6" height="6"/></g>
<g transform="translate(528,330) scale(3.7766666666667)"><rect width="6" height="6"/></g>
<g transform="translate(572,330) scale(3.7766666666667)"><rect width="6" height="6"/></g>
<g transform="translate(638,330) scale(3.7766666666667)"><rect width="6" height="6"/></g>
<g transform="translate(660,330) scale(3.7766666666667)"><rect width="6" height="6"/></g>
<g transform="translate(704,330) scale(3.7766666666667)"><rect width="6" height="6"/></g>
<g transform="translate(792,330) scale(3.7766666666667)"><rect width="6" height="6"/></g>
<g transform="translate(814,330) scale(3.7766666666667)"><rect width="6" height="6"/></g>
<g transform="translate(836,330) scale(3.7766666666667)"><rect width="6" height="6"/></g>
<g transform="translate(858,330) scale(3.7766666666667)"><rect width="6" height="6"/></g>
<g transform="translate(902,330) scale(3.7766666666667)"><rect width="6" height="6"/></g>
<g transform="translate(924,330) scale(3.7766666666667)"><rect width="6" height="6"/></g>
<g transform="translate(44,352) scale(3.7766666666667)"><rect width="6" height="6"/></g>
<g transform="translate(66,352) scale(3.7766666666667)"><rect width="6" height="6"/></g>
<g transform="translate(88,352) scale(3.7766666666667)"><rect width="6" height="6"/></g>
<g transform="translate(176,352) scale(3.7766666666667)"><rect width="6" height="6"/></g>
<g transform="translate(198,352) scale(3.7766666666667)"><rect width="6" height="6"/></g>
<g transform="translate(242,352) scale(3.7766666666667)"><rect width="6" height="6"/></g>
<g transform="translate(264,352) scale(3.7766666666667)"><rect width="6" height="6"/></g>
<g transform="translate(286,352) scale(3.7766666666667)"><rect width="6" height="6"/></g>
<g transform="translate(308,352) scale(3.7766666666667)"><rect width="6" height="6"/></g>
<g transform="translate(352,352) scale(3.7766666666667)"><rect width="6" height="6"/></g>
<g transform="translate(374,352) scale(3.7766666666667)"><rect width="6" height="6"/></g>
<g transform="translate(396,352) scale(3.7766666666667)"><rect width="6" height="6"/></g>
<g transform="translate(418,352) scale(3.7766666666667)"><rect width="6" height="6"/></g>
<g transform="translate(440,352) scale(3.7766666666667)"><rect width="6" height="6"/></g>
<g transform="translate(484,352) scale(3.7766666666667)"><rect width="6" height="6"/></g>
<g transform="translate(506,352) scale(3.7766666666667)"><rect width="6" height="6"/></g>
<g transform="translate(528,352) scale(3.7766666666667)"><rect width="6" height="6"/></g>
<g transform="translate(594,352) scale(3.7766666666667)"><rect width="6" height="6"/></g>
<g transform="translate(616,352) scale(3.7766666666667)"><rect width="6" height="6"/></g>
<g transform="translate(704,352) scale(3.7766666666667)"><rect width="6" height="6"/></g>
<g transform="translate(748,352) scale(3.7766666666667)"><rect width="6" height="6"/></g>
<g transform="translate(770,352) scale(3.7766666666667)"><rect width="6" height="6"/></g>
<g transform="translate(814,352) scale(3.7766666666667)"><rect width="6" height="6"/></g>
<g transform="translate(836,352) scale(3.7766666666667)"><rect width="6" height="6"/></g>
<g transform="translate(110,374) scale(3.7766666666667)"><rect width="6" height="6"/></g>
<g transform="translate(154,374) scale(3.7766666666667)"><rect width="6" height="6"/></g>
<g transform="translate(198,374) scale(3.7766666666667)"><rect width="6" height="6"/></g>
<g transform="translate(220,374) scale(3.7766666666667)"><rect width="6" height="6"/></g>
<g transform="translate(242,374) scale(3.7766666666667)"><rect width="6" height="6"/></g>
<g transform="translate(264,374) scale(3.7766666666667)"><rect width="6" height="6"/></g>
<g transform="translate(308,374) scale(3.7766666666667)"><rect width="6" height="6"/></g>
<g transform="translate(330,374) scale(3.7766666666667)"><rect width="6" height="6"/></g>
<g transform="translate(352,374) scale(3.7766666666667)"><rect width="6" height="6"/></g>
<g transform="translate(396,374) scale(3.7766666666667)"><rect width="6" height="6"/></g>
<g transform="translate(418,374) scale(3.7766666666667)"><rect width="6" height="6"/></g>
<g transform="translate(484,374) scale(3.7766666666667)"><rect width="6" height="6"/></g>
<g transform="translate(572,374) scale(3.7766666666667)"><rect width="6" height="6"/></g>
<g transform="translate(616,374) scale(3.7766666666667)"><rect width="6" height="6"/></g>
<g transform="translate(660,374) scale(3.7766666666667)"><rect width="6" height="6"/></g>
<g transform="translate(792,374) scale(3.7766666666667)"><rect width="6" height="6"/></g>
<g transform="translate(836,374) scale(3.7766666666667)"><rect width="6" height="6"/></g>
<g transform="translate(858,374) scale(3.7766666666667)"><rect width="6" height="6"/></g>
<g transform="translate(902,374) scale(3.7766666666667)"><rect width="6" height="6"/></g>
<g transform="translate(924,374) scale(3.7766666666667)"><rect width="6" height="6"/></g>
<g transform="translate(66,396) scale(3.7766666666667)"><rect width="6" height="6"/></g>
<g transform="translate(110,396) scale(3.7766666666667)"><rect width="6" height="6"/></g>
<g transform="translate(132,396) scale(3.7766666666667)"><rect width="6" height="6"/></g>
<g transform="translate(154,396) scale(3.7766666666667)"><rect width="6" height="6"/></g>
<g transform="translate(176,396) scale(3.7766666666667)"><rect width="6" height="6"/></g>
<g transform="translate(198,396) scale(3.7766666666667)"><rect width="6" height="6"/></g>
<g transform="translate(286,396) scale(3.7766666666667)"><rect width="6" height="6"/></g>
<g transform="translate(308,396) scale(3.7766666666667)"><rect width="6" height="6"/></g>
<g transform="translate(440,396) scale(3.7766666666667)"><rect width="6" height="6"/></g>
<g transform="translate(484,396) scale(3.7766666666667)"><rect width="6" height="6"/></g>
<g transform="translate(506,396) scale(3.7766666666667)"><rect width="6" height="6"/></g>
<g transform="translate(572,396) scale(3.7766666666667)"><rect width="6" height="6"/></g>
<g transform="translate(594,396) scale(3.7766666666667)"><rect width="6" height="6"/></g>
<g transform="translate(682,396) scale(3.7766666666667)"><rect width="6" height="6"/></g>
<g transform="translate(748,396) scale(3.7766666666667)"><rect width="6" height="6"/></g>
<g transform="translate(770,396) scale(3.7766666666667)"><rect width="6" height="6"/></g>
<g transform="translate(814,396) scale(3.7766666666667)"><rect width="6" height="6"/></g>
<g transform="translate(880,396) scale(3.7766666666667)"><rect width="6" height="6"/></g>
<g transform="translate(924,396) scale(3.7766666666667)"><rect width="6" height="6"/></g>
<g transform="translate(44,418) scale(3.7766666666667)"><rect width="6" height="6"/></g>
<g transform="translate(110,418) scale(3.7766666666667)"><rect width="6" height="6"/></g>
<g transform="translate(132,418) scale(3.7766666666667)"><rect width="6" height="6"/></g>
<g transform="translate(154,418) scale(3.7766666666667)"><rect width="6" height="6"/></g>
<g transform="translate(198,418) scale(3.7766666666667)"><rect width="6" height="6"/></g>
<g transform="translate(242,418) scale(3.7766666666667)"><rect width="6" height="6"/></g>
<g transform="translate(264,418) scale(3.7766666666667)"><rect width="6" height="6"/></g>
<g transform="translate(308,418) scale(3.7766666666667)"><rect width="6" height="6"/></g>
<g transform="translate(374,418) scale(3.7766666666667)"><rect width="6" height="6"/></g>
<g transform="translate(396,418) scale(3.7766666666667)"><rect width="6" height="6"/></g>
<g transform="translate(418,418) scale(3.7766666666667)"><rect width="6" height="6"/></g>
<g transform="translate(440,418) scale(3.7766666666667)"><rect width="6" height="6"/></g>
<g transform="translate(484,418) scale(3.7766666666667)"><rect width="6" height="6"/></g>
<g transform="translate(506,418) scale(3.7766666666667)"><rect width="6" height="6"/></g>
<g transform="translate(550,418) scale(3.7766666666667)"><rect width="6" height="6"/></g>
<g transform="translate(572,418) scale(3.7766666666667)"><rect width="6" height="6"/></g>
<g transform="translate(594,418) scale(3.7766666666667)"><rect width="6" height="6"/></g>
<g transform="translate(660,418) scale(3.7766666666667)"><rect width="6" height="6"/></g>
<g transform="translate(704,418) scale(3.7766666666667)"><rect width="6" height="6"/></g>
<g transform="translate(726,418) scale(3.7766666666667)"><rect width="6" height="6"/></g>
<g transform="translate(748,418) scale(3.7766666666667)"><rect width="6" height="6"/></g>
<g transform="translate(792,418) scale(3.7766666666667)"><rect width="6" height="6"/></g>
<g transform="translate(814,418) scale(3.7766666666667)"><rect width="6" height="6"/></g>
<g transform="translate(836,418) scale(3.7766666666667)"><rect width="6" height="6"/></g>
<g transform="translate(44,440) scale(3.7766666666667)"><rect width="6" height="6"/></g>
<g transform="translate(176,440) scale(3.7766666666667)"><rect width="6" height="6"/></g>
<g transform="translate(220,440) scale(3.7766666666667)"><rect width="6" height="6"/></g>
<g transform="translate(242,440) scale(3.7766666666667)"><rect width="6" height="6"/></g>
<g transform="translate(308,440) scale(3.7766666666667)"><rect width="6" height="6"/></g>
<g transform="translate(374,440) scale(3.7766666666667)"><rect width="6" height="6"/></g>
<g transform="translate(396,440) scale(3.7766666666667)"><rect width="6" height="6"/></g>
<g transform="translate(418,440) scale(3.7766666666667)"><rect width="6" height="6"/></g>
<g transform="translate(440,440) scale(3.7766666666667)"><rect width="6" height="6"/></g>
<g transform="translate(462,440) scale(3.7766666666667)"><rect width="6" height="6"/></g>
<g transform="translate(484,440) scale(3.7766666666667)"><rect width="6" height="6"/></g>
<g transform="translate(528,440) scale(3.7766666666667)"><rect width="6" height="6"/></g>
<g transform="translate(572,440) scale(3.7766666666667)"><rect width="6" height="6"/></g>
<g transform="translate(594,440) scale(3.7766666666667)"><rect width="6" height="6"/></g>
<g transform="translate(616,440) scale(3.7766666666667)"><rect width="6" height="6"/></g>
<g transform="translate(638,440) scale(3.7766666666667)"><rect width="6" height="6"/></g>
<g transform="translate(660,440) scale(3.7766666666667)"><rect width="6" height="6"/></g>
<g transform="translate(704,440) scale(3.7766666666667)"><rect width="6" height="6"/></g>
<g transform="translate(748,440) scale(3.7766666666667)"><rect width="6" height="6"/></g>
<g transform="translate(770,440) scale(3.7766666666667)"><rect width="6" height="6"/></g>
<g transform="translate(836,440) scale(3.7766666666667)"><rect width="6" height="6"/></g>
<g transform="translate(858,440) scale(3.7766666666667)"><rect width="6" height="6"/></g>
<g transform="translate(66,462) scale(3.7766666666667)"><rect width="6" height="6"/></g>
<g transform="translate(88,462) scale(3.7766666666667)"><rect width="6" height="6"/></g>
<g transform="translate(110,462) scale(3.7766666666667)"><rect width="6" height="6"/></g>
<g transform="translate(198,462) scale(3.7766666666667)"><rect width="6" height="6"/></g>
<g transform="translate(220,462) scale(3.7766666666667)"><rect width="6" height="6"/></g>
<g transform="translate(308,462) scale(3.7766666666667)"><rect width="6" height="6"/></g>
<g transform="translate(330,462) scale(3.7766666666667)"><rect width="6" height="6"/></g>
<g transform="translate(418,462) scale(3.7766666666667)"><rect width="6" height="6"/></g>
<g transform="translate(462,462) scale(3.7766666666667)"><rect width="6" height="6"/></g>
<g transform="translate(528,462) scale(3.7766666666667)"><rect width="6" height="6"/></g>
<g transform="translate(550,462) scale(3.7766666666667)"><rect width="6" height="6"/></g>
<g transform="translate(594,462) scale(3.7766666666667)"><rect width="6" height="6"/></g>
<g transform="translate(638,462) scale(3.7766666666667)"><rect width="6" height="6"/></g>
<g transform="translate(726,462) scale(3.7766666666667)"><rect width="6" height="6"/></g>
<g transform="translate(748,462) scale(3.7766666666667)"><rect width="6" height="6"/></g>
<g transform="translate(792,462) scale(3.7766666666667)"><rect width="6" height="6"/></g>
<g transform="translate(836,462) scale(3.7766666666667)"><rect width="6" height="6"/></g>
<g transform="translate(858,462) scale(3.7766666666667)"><rect width="6" height="6"/></g>
<g transform="translate(924,462) scale(3.7766666666667)"><rect width="6" height="6"/></g>
<g transform="translate(66,484) scale(3.7766666666667)"><rect width="6" height="6"/></g>
<g transform="translate(132,484) scale(3.7766666666667)"><rect width="6" height="6"/></g>
<g transform="translate(176,484) scale(3.7766666666667)"><rect width="6" height="6"/></g>
<g transform="translate(220,484) scale(3.7766666666667)"><rect width="6" height="6"/></g>
<g transform="translate(264,484) scale(3.7766666666667)"><rect width="6" height="6"/></g>
<g transform="translate(286,484) scale(3.7766666666667)"><rect width="6" height="6"/></g>
<g transform="translate(484,484) scale(3.7766666666667)"><rect width="6" height="6"/></g>
<g transform="translate(506,484) scale(3.7766666666667)"><rect width="6" height="6"/></g>
<g transform="translate(528,484) scale(3.7766666666667)"><rect width="6" height="6"/></g>
<g transform="translate(550,484) scale(3.7766666666667)"><rect width="6" height="6"/></g>
<g transform="translate(572,484) scale(3.7766666666667)"><rect width="6" height="6"/></g>
<g transform="translate(616,484) scale(3.7766666666667)"><rect width="6" height="6"/></g>
<g transform="translate(660,484) scale(3.7766666666667)"><rect width="6" height="6"/></g>
<g transform="translate(704,484) scale(3.7766666666667)"><rect width="6" height="6"/></g>
<g transform="translate(748,484) scale(3.7766666666667)"><rect width="6" height="6"/></g>
<g transform="translate(770,484) scale(3.7766666666667)"><rect width="6" height="6"/></g>
<g transform="translate(814,484) scale(3.7766666666667)"><rect width="6" height="6"/></g>
<g transform="translate(880,484) scale(3.7766666666667)"><rect width="6" height="6"/></g>
<g transform="translate(924,484) scale(3.7766666666667)"><rect width="6" height="6"/></g>
<g transform="translate(44,506) scale(3.7766666666667)"><rect width="6" height="6"/></g>
<g transform="translate(66,506) scale(3.7766666666667)"><rect width="6" height="6"/></g>
<g transform="translate(88,506) scale(3.7766666666667)"><rect width="6" height="6"/></g>
<g transform="translate(154,506) scale(3.7766666666667)"><rect width="6" height="6"/></g>
<g transform="translate(198,506) scale(3.7766666666667)"><rect width="6" height="6"/></g>
<g transform="translate(220,506) scale(3.7766666666667)"><rect width="6" height="6"/></g>
<g transform="translate(242,506) scale(3.7766666666667)"><rect width="6" height="6"/></g>
<g transform="translate(286,506) scale(3.7766666666667)"><rect width="6" height="6"/></g>
<g transform="translate(308,506) scale(3.7766666666667)"><rect width="6" height="6"/></g>
<g transform="translate(330,506) scale(3.7766666666667)"><rect width="6" height="6"/></g>
<g transform="translate(374,506) scale(3.7766666666667)"><rect width="6" height="6"/></g>
<g transform="translate(396,506) scale(3.7766666666667)"><rect width="6" height="6"/></g>
<g transform="translate(418,506) scale(3.7766666666667)"><rect width="6" height="6"/></g>
<g transform="translate(440,506) scale(3.7766666666667)"><rect width="6" height="6"/></g>
<g transform="translate(462,506) scale(3.7766666666667)"><rect width="6" height="6"/></g>
<g transform="translate(528,506) scale(3.7766666666667)"><rect width="6" height="6"/></g>
<g transform="translate(550,506) scale(3.7766666666667)"><rect width="6" height="6"/></g>
<g transform="translate(594,506) scale(3.7766666666667)"><rect width="6" height="6"/></g>
<g transform="translate(660,506) scale(3.7766666666667)"><rect width="6" height="6"/></g>
<g transform="translate(682,506) scale(3.7766666666667)"><rect width="6" height="6"/></g>
<g transform="translate(726,506) scale(3.7766666666667)"><rect width="6" height="6"/></g>
<g transform="translate(748,506) scale(3.7766666666667)"><rect width="6" height="6"/></g>
<g transform="translate(770,506) scale(3.7766666666667)"><rect width="6" height="6"/></g>
<g transform="translate(792,506) scale(3.7766666666667)"><rect width="6" height="6"/></g>
<g transform="translate(814,506) scale(3.7766666666667)"><rect width="6" height="6"/></g>
<g transform="translate(836,506) scale(3.7766666666667)"><rect width="6" height="6"/></g>
<g transform="translate(902,506) scale(3.7766666666667)"><rect width="6" height="6"/></g>
<g transform="translate(924,506) scale(3.7766666666667)"><rect width="6" height="6"/></g>
<g transform="translate(44,528) scale(3.7766666666667)"><rect width="6" height="6"/></g>
<g transform="translate(66,528) scale(3.7766666666667)"><rect width="6" height="6"/></g>
<g transform="translate(132,528) scale(3.7766666666667)"><rect width="6" height="6"/></g>
<g transform="translate(176,528) scale(3.7766666666667)"><rect width="6" height="6"/></g>
<g transform="translate(198,528) scale(3.7766666666667)"><rect width="6" height="6"/></g>
<g transform="translate(220,528) scale(3.7766666666667)"><rect width="6" height="6"/></g>
<g transform="translate(242,528) scale(3.7766666666667)"><rect width="6" height="6"/></g>
<g transform="translate(286,528) scale(3.7766666666667)"><rect width="6" height="6"/></g>
<g transform="translate(308,528) scale(3.7766666666667)"><rect width="6" height="6"/></g>
<g transform="translate(352,528) scale(3.7766666666667)"><rect width="6" height="6"/></g>
<g transform="translate(528,528) scale(3.7766666666667)"><rect width="6" height="6"/></g>
<g transform="translate(594,528) scale(3.7766666666667)"><rect width="6" height="6"/></g>
<g transform="translate(616,528) scale(3.7766666666667)"><rect width="6" height="6"/></g>
<g transform="translate(638,528) scale(3.7766666666667)"><rect width="6" height="6"/></g>
<g transform="translate(704,528) scale(3.7766666666667)"><rect width="6" height="6"/></g>
<g transform="translate(770,528) scale(3.7766666666667)"><rect width="6" height="6"/></g>
<g transform="translate(814,528) scale(3.7766666666667)"><rect width="6" height="6"/></g>
<g transform="translate(836,528) scale(3.7766666666667)"><rect width="6" height="6"/></g>
<g transform="translate(858,528) scale(3.7766666666667)"><rect width="6" height="6"/></g>
<g transform="translate(880,528) scale(3.7766666666667)"><rect width="6" height="6"/></g>
<g transform="translate(132,550) scale(3.7766666666667)"><rect width="6" height="6"/></g>
<g transform="translate(154,550) scale(3.7766666666667)"><rect width="6" height="6"/></g>
<g transform="translate(308,550) scale(3.7766666666667)"><rect width="6" height="6"/></g>
<g transform="translate(330,550) scale(3.7766666666667)"><rect width="6" height="6"/></g>
<g transform="translate(352,550) scale(3.7766666666667)"><rect width="6" height="6"/></g>
<g transform="translate(374,550) scale(3.7766666666667)"><rect width="6" height="6"/></g>
<g transform="translate(396,550) scale(3.7766666666667)"><rect width="6" height="6"/></g>
<g transform="translate(418,550) scale(3.7766666666667)"><rect width="6" height="6"/></g>
<g transform="translate(440,550) scale(3.7766666666667)"><rect width="6" height="6"/></g>
<g transform="translate(462,550) scale(3.7766666666667)"><rect width="6" height="6"/></g>
<g transform="translate(506,550) scale(3.7766666666667)"><rect width="6" height="6"/></g>
<g transform="translate(572,550) scale(3.7766666666667)"><rect width="6" height="6"/></g>
<g transform="translate(660,550) scale(3.7766666666667)"><rect width="6" height="6"/></g>
<g transform="translate(726,550) scale(3.7766666666667)"><rect width="6" height="6"/></g>
<g transform="translate(770,550) scale(3.7766666666667)"><rect width="6" height="6"/></g>
<g transform="translate(792,550) scale(3.7766666666667)"><rect width="6" height="6"/></g>
<g transform="translate(836,550) scale(3.7766666666667)"><rect width="6" height="6"/></g>
<g transform="translate(858,550) scale(3.7766666666667)"><rect width="6" height="6"/></g>
<g transform="translate(902,550) scale(3.7766666666667)"><rect width="6" height="6"/></g>
<g transform="translate(924,550) scale(3.7766666666667)"><rect width="6" height="6"/></g>
<g transform="translate(110,572) scale(3.7766666666667)"><rect width="6" height="6"/></g>
<g transform="translate(132,572) scale(3.7766666666667)"><rect width="6" height="6"/></g>
<g transform="translate(154,572) scale(3.7766666666667)"><rect width="6" height="6"/></g>
<g transform="translate(176,572) scale(3.7766666666667)"><rect width="6" height="6"/></g>
<g transform="translate(198,572) scale(3.7766666666667)"><rect width="6" height="6"/></g>
<g transform="translate(220,572) scale(3.7766666666667)"><rect width="6" height="6"/></g>
<g transform="translate(264,572) scale(3.7766666666667)"><rect width="6" height="6"/></g>
<g transform="translate(374,572) scale(3.7766666666667)"><rect width="6" height="6"/></g>
<g transform="translate(418,572) scale(3.7766666666667)"><rect width="6" height="6"/></g>
<g transform="translate(440,572) scale(3.7766666666667)"><rect width="6" height="6"/></g>
<g transform="translate(506,572) scale(3.7766666666667)"><rect width="6" height="6"/></g>
<g transform="translate(528,572) scale(3.7766666666667)"><rect width="6" height="6"/></g>
<g transform="translate(550,572) scale(3.7766666666667)"><rect width="6" height="6"/></g>
<g transform="translate(572,572) scale(3.7766666666667)"><rect width="6" height="6"/></g>
<g transform="translate(594,572) scale(3.7766666666667)"><rect width="6" height="6"/></g>
<g transform="translate(616,572) scale(3.7766666666667)"><rect width="6" height="6"/></g>
<g transform="translate(638,572) scale(3.7766666666667)"><rect width="6" height="6"/></g>
<g transform="translate(660,572) scale(3.7766666666667)"><rect width="6" height="6"/></g>
<g transform="translate(682,572) scale(3.7766666666667)"><rect width="6" height="6"/></g>
<g transform="translate(726,572) scale(3.7766666666667)"><rect width="6" height="6"/></g>
<g transform="translate(814,572) scale(3.7766666666667)"><rect width="6" height="6"/></g>
<g transform="translate(880,572) scale(3.7766666666667)"><rect width="6" height="6"/></g>
<g transform="translate(924,572) scale(3.7766666666667)"><rect width="6" height="6"/></g>
<g transform="translate(66,594) scale(3.7766666666667)"><rect width="6" height="6"/></g>
<g transform="translate(110,594) scale(3.7766666666667)"><rect width="6" height="6"/></g>
<g transform="translate(154,594) scale(3.7766666666667)"><rect width="6" height="6"/></g>
<g transform="translate(264,594) scale(3.7766666666667)"><rect width="6" height="6"/></g>
<g transform="translate(396,594) scale(3.7766666666667)"><rect width="6" height="6"/></g>
<g transform="translate(418,594) scale(3.7766666666667)"><rect width="6" height="6"/></g>
<g transform="translate(440,594) scale(3.7766666666667)"><rect width="6" height="6"/></g>
<g transform="translate(462,594) scale(3.7766666666667)"><rect width="6" height="6"/></g>
<g transform="translate(484,594) scale(3.7766666666667)"><rect width="6" height="6"/></g>
<g transform="translate(506,594) scale(3.7766666666667)"><rect width="6" height="6"/></g>
<g transform="translate(550,594) scale(3.7766666666667)"><rect width="6" height="6"/></g>
<g transform="translate(660,594) scale(3.7766666666667)"><rect width="6" height="6"/></g>
<g transform="translate(682,594) scale(3.7766666666667)"><rect width="6" height="6"/></g>
<g transform="translate(726,594) scale(3.7766666666667)"><rect width="6" height="6"/></g>
<g transform="translate(770,594) scale(3.7766666666667)"><rect width="6" height="6"/></g>
<g transform="translate(792,594) scale(3.7766666666667)"><rect width="6" height="6"/></g>
<g transform="translate(814,594) scale(3.7766666666667)"><rect width="6" height="6"/></g>
<g transform="translate(836,594) scale(3.7766666666667)"><rect width="6" height="6"/></g>
<g transform="translate(858,594) scale(3.7766666666667)"><rect width="6" height="6"/></g>
<g transform="translate(902,594) scale(3.7766666666667)"><rect width="6" height="6"/></g>
<g transform="translate(924,594) scale(3.7766666666667)"><rect width="6" height="6"/></g>
<g transform="translate(44,616) scale(3.7766666666667)"><rect width="6" height="6"/></g>
<g transform="translate(66,616) scale(3.7766666666667)"><rect width="6" height="6"/></g>
<g transform="translate(88,616) scale(3.7766666666667)"><rect width="6" height="6"/></g>
<g transform="translate(132,616) scale(3.7766666666667)"><rect width="6" height="6"/></g>
<g transform="translate(154,616) scale(3.7766666666667)"><rect width="6" height="6"/></g>
<g transform="translate(176,616) scale(3.7766666666667)"><rect width="6" height="6"/></g>
<g transform="translate(198,616) scale(3.7766666666667)"><rect width="6" height="6"/></g>
<g transform="translate(242,616) scale(3.7766666666667)"><rect width="6" height="6"/></g>
<g transform="translate(286,616) scale(3.7766666666667)"><rect width="6" height="6"/></g>
<g transform="translate(308,616) scale(3.7766666666667)"><rect width="6" height="6"/></g>
<g transform="translate(352,616) scale(3.7766666666667)"><rect width="6" height="6"/></g>
<g transform="translate(440,616) scale(3.7766666666667)"><rect width="6" height="6"/></g>
<g transform="translate(462,616) scale(3.7766666666667)"><rect width="6" height="6"/></g>
<g transform="translate(506,616) scale(3.7766666666667)"><rect width="6" height="6"/></g>
<g transform="translate(594,616) scale(3.7766666666667)"><rect width="6" height="6"/></g>
<g transform="translate(638,616) scale(3.7766666666667)"><rect width="6" height="6"/></g>
<g transform="translate(704,616) scale(3.7766666666667)"><rect width="6" height="6"/></g>
<g transform="translate(748,616) scale(3.7766666666667)"><rect width="6" height="6"/></g>
<g transform="translate(770,616) scale(3.7766666666667)"><rect width="6" height="6"/></g>
<g transform="translate(814,616) scale(3.7766666666667)"><rect width="6" height="6"/></g>
<g transform="translate(836,616) scale(3.7766666666667)"><rect width="6" height="6"/></g>
<g transform="translate(66,638) scale(3.7766666666667)"><rect width="6" height="6"/></g>
<g transform="translate(88,638) scale(3.7766666666667)"><rect width="6" height="6"/></g>
<g transform="translate(110,638) scale(3.7766666666667)"><rect width="6" height="6"/></g>
<g transform="translate(154,638) scale(3.7766666666667)"><rect width="6" height="6"/></g>
<g transform="translate(198,638) scale(3.7766666666667)"><rect width="6" height="6"/></g>
<g transform="translate(220,638) scale(3.7766666666667)"><rect width="6" height="6"/></g>
<g transform="translate(242,638) scale(3.7766666666667)"><rect width="6" height="6"/></g>
<g transform="translate(264,638) scale(3.7766666666667)"><rect width="6" height="6"/></g>
<g transform="translate(286,638) scale(3.7766666666667)"><rect width="6" height="6"/></g>
<g transform="translate(308,638) scale(3.7766666666667)"><rect width="6" height="6"/></g>
<g transform="translate(374,638) scale(3.7766666666667)"><rect width="6" height="6"/></g>
<g transform="translate(418,638) scale(3.7766666666667)"><rect width="6" height="6"/></g>
<g transform="translate(462,638) scale(3.7766666666667)"><rect width="6" height="6"/></g>
<g transform="translate(484,638) scale(3.7766666666667)"><rect width="6" height="6"/></g>
<g transform="translate(528,638) scale(3.7766666666667)"><rect width="6" height="6"/></g>
<g transform="translate(550,638) scale(3.7766666666667)"><rect width="6" height="6"/></g>
<g transform="translate(616,638) scale(3.7766666666667)"><rect width="6" height="6"/></g>
<g transform="translate(638,638) scale(3.7766666666667)"><rect width="6" height="6"/></g>
<g transform="translate(726,638) scale(3.7766666666667)"><rect width="6" height="6"/></g>
<g transform="translate(748,638) scale(3.7766666666667)"><rect width="6" height="6"/></g>
<g transform="translate(770,638) scale(3.7766666666667)"><rect width="6" height="6"/></g>
<g transform="translate(814,638) scale(3.7766666666667)"><rect width="6" height="6"/></g>
<g transform="translate(858,638) scale(3.7766666666667)"><rect width="6" height="6"/></g>
<g transform="translate(66,660) scale(3.7766666666667)"><rect width="6" height="6"/></g>
<g transform="translate(110,660) scale(3.7766666666667)"><rect width="6" height="6"/></g>
<g transform="translate(132,660) scale(3.7766666666667)"><rect width="6" height="6"/></g>
<g transform="translate(176,660) scale(3.7766666666667)"><rect width="6" height="6"/></g>
<g transform="translate(242,660) scale(3.7766666666667)"><rect width="6" height="6"/></g>
<g transform="translate(264,660) scale(3.7766666666667)"><rect width="6" height="6"/></g>
<g transform="translate(308,660) scale(3.7766666666667)"><rect width="6" height="6"/></g>
<g transform="translate(330,660) scale(3.7766666666667)"><rect width="6" height="6"/></g>
<g transform="translate(374,660) scale(3.7766666666667)"><rect width="6" height="6"/></g>
<g transform="translate(418,660) scale(3.7766666666667)"><rect width="6" height="6"/></g>
<g transform="translate(440,660) scale(3.7766666666667)"><rect width="6" height="6"/></g>
<g transform="translate(462,660) scale(3.7766666666667)"><rect width="6" height="6"/></g>
<g transform="translate(484,660) scale(3.7766666666667)"><rect width="6" height="6"/></g>
<g transform="translate(550,660) scale(3.7766666666667)"><rect width="6" height="6"/></g>
<g transform="translate(572,660) scale(3.7766666666667)"><rect width="6" height="6"/></g>
<g transform="translate(594,660) scale(3.7766666666667)"><rect width="6" height="6"/></g>
<g transform="translate(616,660) scale(3.7766666666667)"><rect width="6" height="6"/></g>
<g transform="translate(660,660) scale(3.7766666666667)"><rect width="6" height="6"/></g>
<g transform="translate(682,660) scale(3.7766666666667)"><rect width="6" height="6"/></g>
<g transform="translate(704,660) scale(3.7766666666667)"><rect width="6" height="6"/></g>
<g transform="translate(726,660) scale(3.7766666666667)"><rect width="6" height="6"/></g>
<g transform="translate(770,660) scale(3.7766666666667)"><rect width="6" height="6"/></g>
<g transform="translate(858,660) scale(3.7766666666667)"><rect width="6" height="6"/></g>
<g transform="translate(880,660) scale(3.7766666666667)"><rect width="6" height="6"/></g>
<g transform="translate(924,660) scale(3.7766666666667)"><rect width="6" height="6"/></g>
<g transform="translate(44,682) scale(3.7766666666667)"><rect width="6" height="6"/></g>
<g transform="translate(66,682) scale(3.7766666666667)"><rect width="6" height="6"/></g>
<g transform="translate(110,682) scale(3.7766666666667)"><rect width="6" height="6"/></g>
<g transform="translate(132,682) scale(3.7766666666667)"><rect width="6" height="6"/></g>
<g transform="translate(198,682) scale(3.7766666666667)"><rect width="6" height="6"/></g>
<g transform="translate(264,682) scale(3.7766666666667)"><rect width="6" height="6"/></g>
<g transform="translate(286,682) scale(3.7766666666667)"><rect width="6" height="6"/></g>
<g transform="translate(396,682) scale(3.7766666666667)"><rect width="6" height="6"/></g>
<g transform="translate(440,682) scale(3.7766666666667)"><rect width="6" height="6"/></g>
<g transform="translate(484,682) scale(3.7766666666667)"><rect width="6" height="6"/></g>
<g transform="translate(594,682) scale(3.7766666666667)"><rect width="6" height="6"/></g>
<g transform="translate(616,682) scale(3.7766666666667)"><rect width="6" height="6"/></g>
<g transform="translate(638,682) scale(3.7766666666667)"><rect width="6" height="6"/></g>
<g transform="translate(682,682) scale(3.7766666666667)"><rect width="6" height="6"/></g>
<g transform="translate(704,682) scale(3.7766666666667)"><rect width="6" height="6"/></g>
<g transform="translate(748,682) scale(3.7766666666667)"><rect width="6" height="6"/></g>
<g transform="translate(770,682) scale(3.7766666666667)"><rect width="6" height="6"/></g>
<g transform="translate(814,682) scale(3.7766666666667)"><rect width="6" height="6"/></g>
<g transform="translate(836,682) scale(3.7766666666667)"><rect width="6" height="6"/></g>
<g transform="translate(858,682) scale(3.7766666666667)"><rect width="6" height="6"/></g>
<g transform="translate(880,682) scale(3.7766666666667)"><rect width="6" height="6"/></g>
<g transform="translate(902,682) scale(3.7766666666667)"><rect width="6" height="6"/></g>
<g transform="translate(924,682) scale(3.7766666666667)"><rect width="6" height="6"/></g>
<g transform="translate(44,704) scale(3.7766666666667)"><rect width="6" height="6"/></g>
<g transform="translate(88,704) scale(3.7766666666667)"><rect width="6" height="6"/></g>
<g transform="translate(132,704) scale(3.7766666666667)"><rect width="6" height="6"/></g>
<g transform="translate(176,704) scale(3.7766666666667)"><rect width="6" height="6"/></g>
<g transform="translate(220,704) scale(3.7766666666667)"><rect width="6" height="6"/></g>
<g transform="translate(242,704) scale(3.7766666666667)"><rect width="6" height="6"/></g>
<g transform="translate(264,704) scale(3.7766666666667)"><rect width="6" height="6"/></g>
<g transform="translate(374,704) scale(3.7766666666667)"><rect width="6" height="6"/></g>
<g transform="translate(418,704) scale(3.7766666666667)"><rect width="6" height="6"/></g>
<g transform="translate(440,704) scale(3.7766666666667)"><rect width="6" height="6"/></g>
<g transform="translate(484,704) scale(3.7766666666667)"><rect width="6" height="6"/></g>
<g transform="translate(550,704) scale(3.7766666666667)"><rect width="6" height="6"/></g>
<g transform="translate(572,704) scale(3.7766666666667)"><rect width="6" height="6"/></g>
<g transform="translate(616,704) scale(3.7766666666667)"><rect width="6" height="6"/></g>
<g transform="translate(638,704) scale(3.7766666666667)"><rect width="6" height="6"/></g>
<g transform="translate(660,704) scale(3.7766666666667)"><rect width="6" height="6"/></g>
<g transform="translate(726,704) scale(3.7766666666667)"><rect width="6" height="6"/></g>
<g transform="translate(770,704) scale(3.7766666666667)"><rect width="6" height="6"/></g>
<g transform="translate(792,704) scale(3.7766666666667)"><rect width="6" height="6"/></g>
<g transform="translate(814,704) scale(3.7766666666667)"><rect width="6" height="6"/></g>
<g transform="translate(836,704) scale(3.7766666666667)"><rect width="6" height="6"/></g>
<g transform="translate(858,704) scale(3.7766666666667)"><rect width="6" height="6"/></g>
<g transform="translate(880,704) scale(3.7766666666667)"><rect width="6" height="6"/></g>
<g transform="translate(44,726) scale(3.7766666666667)"><rect width="6" height="6"/></g>
<g transform="translate(110,726) scale(3.7766666666667)"><rect width="6" height="6"/></g>
<g transform="translate(132,726) scale(3.7766666666667)"><rect width="6" height="6"/></g>
<g transform="translate(220,726) scale(3.7766666666667)"><rect width="6" height="6"/></g>
<g transform="translate(264,726) scale(3.7766666666667)"><rect width="6" height="6"/></g>
<g transform="translate(286,726) scale(3.7766666666667)"><rect width="6" height="6"/></g>
<g transform="translate(308,726) scale(3.7766666666667)"><rect width="6" height="6"/></g>
<g transform="translate(462,726) scale(3.7766666666667)"><rect width="6" height="6"/></g>
<g transform="translate(484,726) scale(3.7766666666667)"><rect width="6" height="6"/></g>
<g transform="translate(550,726) scale(3.7766666666667)"><rect width="6" height="6"/></g>
<g transform="translate(616,726) scale(3.7766666666667)"><rect width="6" height="6"/></g>
<g transform="translate(638,726) scale(3.7766666666667)"><rect width="6" height="6"/></g>
<g transform="translate(726,726) scale(3.7766666666667)"><rect width="6" height="6"/></g>
<g transform="translate(748,726) scale(3.7766666666667)"><rect width="6" height="6"/></g>
<g transform="translate(770,726) scale(3.7766666666667)"><rect width="6" height="6"/></g>
<g transform="translate(792,726) scale(3.7766666666667)"><rect width="6" height="6"/></g>
<g transform="translate(814,726) scale(3.7766666666667)"><rect width="6" height="6"/></g>
<g transform="translate(858,726) scale(3.7766666666667)"><rect width="6" height="6"/></g>
<g transform="translate(924,726) scale(3.7766666666667)"><rect width="6" height="6"/></g>
<g transform="translate(44,748) scale(3.7766666666667)"><rect width="6" height="6"/></g>
<g transform="translate(132,748) scale(3.7766666666667)"><rect width="6" height="6"/></g>
<g transform="translate(176,748) scale(3.7766666666667)"><rect width="6" height="6"/></g>
<g transform="translate(242,748) scale(3.7766666666667)"><rect width="6" height="6"/></g>
<g transform="translate(286,748) scale(3.7766666666667)"><rect width="6" height="6"/></g>
<g transform="translate(308,748) scale(3.7766666666667)"><rect width="6" height="6"/></g>
<g transform="translate(374,748) scale(3.7766666666667)"><rect width="6" height="6"/></g>
<g transform="translate(418,748) scale(3.7766666666667)"><rect width="6" height="6"/></g>
<g transform="translate(440,748) scale(3.7766666666667)"><rect width="6" height="6"/></g>
<g transform="translate(462,748) scale(3.7766666666667)"><rect width="6" height="6"/></g>
<g transform="translate(484,748) scale(3.7766666666667)"><rect width="6" height="6"/></g>
<g transform="translate(506,748) scale(3.7766666666667)"><rect width="6" height="6"/></g>
<g transform="translate(550,748) scale(3.7766666666667)"><rect width="6" height="6"/></g>
<g transform="translate(572,748) scale(3.7766666666667)"><rect width="6" height="6"/></g>
<g transform="translate(594,748) scale(3.7766666666667)"><rect width="6" height="6"/></g>
<g transform="translate(616,748) scale(3.7766666666667)"><rect width="6" height="6"/></g>
<g transform="translate(638,748) scale(3.7766666666667)"><rect width="6" height="6"/></g>
<g transform="translate(682,748) scale(3.7766666666667)"><rect width="6" height="6"/></g>
<g transform="translate(726,748) scale(3.7766666666667)"><rect width="6" height="6"/></g>
<g transform="translate(748,748) scale(3.7766666666667)"><rect width="6" height="6"/></g>
<g transform="translate(770,748) scale(3.7766666666667)"><rect width="6" height="6"/></g>
<g transform="translate(792,748) scale(3.7766666666667)"><rect width="6" height="6"/></g>
<g transform="translate(814,748) scale(3.7766666666667)"><rect width="6" height="6"/></g>
<g transform="translate(836,748) scale(3.7766666666667)"><rect width="6" height="6"/></g>
<g transform="translate(880,748) scale(3.7766666666667)"><rect width="6" height="6"/></g>
<g transform="translate(924,748) scale(3.7766666666667)"><rect width="6" height="6"/></g>
<g transform="translate(220,770) scale(3.7766666666667)"><rect width="6" height="6"/></g>
<g transform="translate(286,770) scale(3.7766666666667)"><rect width="6" height="6"/></g>
<g transform="translate(308,770) scale(3.7766666666667)"><rect width="6" height="6"/></g>
<g transform="translate(330,770) scale(3.7766666666667)"><rect width="6" height="6"/></g>
<g transform="translate(396,770) scale(3.7766666666667)"><rect width="6" height="6"/></g>
<g transform="translate(418,770) scale(3.7766666666667)"><rect width="6" height="6"/></g>
<g transform="translate(440,770) scale(3.7766666666667)"><rect width="6" height="6"/></g>
<g transform="translate(484,770) scale(3.7766666666667)"><rect width="6" height="6"/></g>
<g transform="translate(550,770) scale(3.7766666666667)"><rect width="6" height="6"/></g>
<g transform="translate(660,770) scale(3.7766666666667)"><rect width="6" height="6"/></g>
<g transform="translate(682,770) scale(3.7766666666667)"><rect width="6" height="6"/></g>
<g transform="translate(704,770) scale(3.7766666666667)"><rect width="6" height="6"/></g>
<g transform="translate(748,770) scale(3.7766666666667)"><rect width="6" height="6"/></g>
<g transform="translate(836,770) scale(3.7766666666667)"><rect width="6" height="6"/></g>
<g transform="translate(858,770) scale(3.7766666666667)"><rect width="6" height="6"/></g>
<g transform="translate(880,770) scale(3.7766666666667)"><rect width="6" height="6"/></g>
<g transform="translate(902,770) scale(3.7766666666667)"><rect width="6" height="6"/></g>
<g transform="translate(924,770) scale(3.7766666666667)"><rect width="6" height="6"/></g>
<g transform="translate(220,792) scale(3.7766666666667)"><rect width="6" height="6"/></g>
<g transform="translate(308,792) scale(3.7766666666667)"><rect width="6" height="6"/></g>
<g transform="translate(330,792) scale(3.7766666666667)"><rect width="6" height="6"/></g>
<g transform="translate(374,792) scale(3.7766666666667)"><rect width="6" height="6"/></g>
<g transform="translate(440,792) scale(3.7766666666667)"><rect width="6" height="6"/></g>
<g transform="translate(462,792) scale(3.7766666666667)"><rect width="6" height="6"/></g>
<g transform="translate(506,792) scale(3.7766666666667)"><rect width="6" height="6"/></g>
<g transform="translate(638,792) scale(3.7766666666667)"><rect width="6" height="6"/></g>
<g transform="translate(660,792) scale(3.7766666666667)"><rect width="6" height="6"/></g>
<g transform="translate(682,792) scale(3.7766666666667)"><rect width="6" height="6"/></g>
<g transform="translate(726,792) scale(3.7766666666667)"><rect width="6" height="6"/></g>
<g transform="translate(748,792) scale(3.7766666666667)"><rect width="6" height="6"/></g>
<g transform="translate(792,792) scale(3.7766666666667)"><rect width="6" height="6"/></g>
<g transform="translate(836,792) scale(3.7766666666667)"><rect width="6" height="6"/></g>
<g transform="translate(902,792) scale(3.7766666666667)"><rect width="6" height="6"/></g>
<g transform="translate(220,814) scale(3.7766666666667)"><rect width="6" height="6"/></g>
<g transform="translate(242,814) scale(3.7766666666667)"><rect width="6" height="6"/></g>
<g transform="translate(264,814) scale(3.7766666666667)"><rect width="6" height="6"/></g>
<g transform="translate(330,814) scale(3.7766666666667)"><rect width="6" height="6"/></g>
<g transform="translate(374,814) scale(3.7766666666667)"><rect width="6" height="6"/></g>
<g transform="translate(418,814) scale(3.7766666666667)"><rect width="6" height="6"/></g>
<g transform="translate(440,814) scale(3.7766666666667)"><rect width="6" height="6"/></g>
<g transform="translate(484,814) scale(3.7766666666667)"><rect width="6" height="6"/></g>
<g transform="translate(528,814) scale(3.7766666666667)"><rect width="6" height="6"/></g>
<g transform="translate(572,814) scale(3.7766666666667)"><rect width="6" height="6"/></g>
<g transform="translate(616,814) scale(3.7766666666667)"><rect width="6" height="6"/></g>
<g transform="translate(638,814) scale(3.7766666666667)"><rect width="6" height="6"/></g>
<g transform="translate(660,814) scale(3.7766666666667)"><rect width="6" height="6"/></g>
<g transform="translate(682,814) scale(3.7766666666667)"><rect width="6" height="6"/></g>
<g transform="translate(704,814) scale(3.7766666666667)"><rect width="6" height="6"/></g>
<g transform="translate(726,814) scale(3.7766666666667)"><rect width="6" height="6"/></g>
<g transform="translate(748,814) scale(3.7766666666667)"><rect width="6" height="6"/></g>
<g transform="translate(836,814) scale(3.7766666666667)"><rect width="6" height="6"/></g>
<g transform="translate(220,836) scale(3.7766666666667)"><rect width="6" height="6"/></g>
<g transform="translate(264,836) scale(3.7766666666667)"><rect width="6" height="6"/></g>
<g transform="translate(286,836) scale(3.7766666666667)"><rect width="6" height="6"/></g>
<g transform="translate(352,836) scale(3.7766666666667)"><rect width="6" height="6"/></g>
<g transform="translate(440,836) scale(3.7766666666667)"><rect width="6" height="6"/></g>
<g transform="translate(484,836) scale(3.7766666666667)"><rect width="6" height="6"/></g>
<g transform="translate(506,836) scale(3.7766666666667)"><rect width="6" height="6"/></g>
<g transform="translate(528,836) scale(3.7766666666667)"><rect width="6" height="6"/></g>
<g transform="translate(550,836) scale(3.7766666666667)"><rect width="6" height="6"/></g>
<g transform="translate(572,836) scale(3.7766666666667)"><rect width="6" height="6"/></g>
<g transform="translate(748,836) scale(3.7766666666667)"><rect width="6" height="6"/></g>
<g transform="translate(770,836) scale(3.7766666666667)"><rect width="6" height="6"/></g>
<g transform="translate(792,836) scale(3.7766666666667)"><rect width="6" height="6"/></g>
<g transform="translate(814,836) scale(3.7766666666667)"><rect width="6" height="6"/></g>
<g transform="translate(836,836) scale(3.7766666666667)"><rect width="6" height="6"/></g>
<g transform="translate(880,836) scale(3.7766666666667)"><rect width="6" height="6"/></g>
<g transform="translate(924,836) scale(3.7766666666667)"><rect width="6" height="6"/></g>
<g transform="translate(220,858) scale(3.7766666666667)"><rect width="6" height="6"/></g>
<g transform="translate(242,858) scale(3.7766666666667)"><rect width="6" height="6"/></g>
<g transform="translate(264,858) scale(3.7766666666667)"><rect width="6" height="6"/></g>
<g transform="translate(308,858) scale(3.7766666666667)"><rect width="6" height="6"/></g>
<g transform="translate(330,858) scale(3.7766666666667)"><rect width="6" height="6"/></g>
<g transform="translate(352,858) scale(3.7766666666667)"><rect width="6" height="6"/></g>
<g transform="translate(374,858) scale(3.7766666666667)"><rect width="6" height="6"/></g>
<g transform="translate(418,858) scale(3.7766666666667)"><rect width="6" height="6"/></g>
<g transform="translate(440,858) scale(3.7766666666667)"><rect width="6" height="6"/></g>
<g transform="translate(550,858) scale(3.7766666666667)"><rect width="6" height="6"/></g>
<g transform="translate(616,858) scale(3.7766666666667)"><rect width="6" height="6"/></g>
<g transform="translate(638,858) scale(3.7766666666667)"><rect width="6" height="6"/></g>
<g transform="translate(660,858) scale(3.7766666666667)"><rect width="6" height="6"/></g>
<g transform="translate(704,858) scale(3.7766666666667)"><rect width="6" height="6"/></g>
<g transform="translate(726,858) scale(3.7766666666667)"><rect width="6" height="6"/></g>
<g transform="translate(748,858) scale(3.7766666666667)"><rect width="6" height="6"/></g>
<g transform="translate(770,858) scale(3.7766666666667)"><rect width="6" height="6"/></g>
<g transform="translate(814,858) scale(3.7766666666667)"><rect width="6" height="6"/></g>
<g transform="translate(880,858) scale(3.7766666666667)"><rect width="6" height="6"/></g>
<g transform="translate(924,858) scale(3.7766666666667)"><rect width="6" height="6"/></g>
<g transform="translate(220,880) scale(3.7766666666667)"><rect width="6" height="6"/></g>
<g transform="translate(242,880) scale(3.7766666666667)"><rect width="6" height="6"/></g>
<g transform="translate(308,880) scale(3.7766666666667)"><rect width="6" height="6"/></g>
<g transform="translate(330,880) scale(3.7766666666667)"><rect width="6" height="6"/></g>
<g transform="translate(352,880) scale(3.7766666666667)"><rect width="6" height="6"/></g>
<g transform="translate(374,880) scale(3.7766666666667)"><rect width="6" height="6"/></g>
<g transform="translate(396,880) scale(3.7766666666667)"><rect width="6" height="6"/></g>
<g transform="translate(462,880) scale(3.7766666666667)"><rect width="6" height="6"/></g>
<g transform="translate(506,880) scale(3.7766666666667)"><rect width="6" height="6"/></g>
<g transform="translate(572,880) scale(3.7766666666667)"><rect width="6" height="6"/></g>
<g transform="translate(594,880) scale(3.7766666666667)"><rect width="6" height="6"/></g>
<g transform="translate(638,880) scale(3.7766666666667)"><rect width="6" height="6"/></g>
<g transform="translate(660,880) scale(3.7766666666667)"><rect width="6" height="6"/></g>
<g transform="translate(726,880) scale(3.7766666666667)"><rect width="6" height="6"/></g>
<g transform="translate(748,880) scale(3.7766666666667)"><rect width="6" height="6"/></g>
<g transform="translate(770,880) scale(3.7766666666667)"><rect width="6" height="6"/></g>
<g transform="translate(792,880) scale(3.7766666666667)"><rect width="6" height="6"/></g>
<g transform="translate(814,880) scale(3.7766666666667)"><rect width="6" height="6"/></g>
<g transform="translate(836,880) scale(3.7766666666667)"><rect width="6" height="6"/></g>
<g transform="translate(902,880) scale(3.7766666666667)"><rect width="6" height="6"/></g>
<g transform="translate(220,902) scale(3.7766666666667)"><rect width="6" height="6"/></g>
<g transform="translate(264,902) scale(3.7766666666667)"><rect width="6" height="6"/></g>
<g transform="translate(308,902) scale(3.7766666666667)"><rect width="6" height="6"/></g>
<g transform="translate(396,902) scale(3.7766666666667)"><rect width="6" height="6"/></g>
<g transform="translate(484,902) scale(3.7766666666667)"><rect width="6" height="6"/></g>
<g transform="translate(506,902) scale(3.7766666666667)"><rect width="6" height="6"/></g>
<g transform="translate(528,902) scale(3.7766666666667)"><rect width="6" height="6"/></g>
<g transform="translate(616,902) scale(3.7766666666667)"><rect width="6" height="6"/></g>
<g transform="translate(660,902) scale(3.7766666666667)"><rect width="6" height="6"/></g>
<g transform="translate(704,902) scale(3.7766666666667)"><rect width="6" height="6"/></g>
<g transform="translate(792,902) scale(3.7766666666667)"><rect width="6" height="6"/></g>
<g transform="translate(836,902) scale(3.7766666666667)"><rect width="6" height="6"/></g>
<g transform="translate(858,902) scale(3.7766666666667)"><rect width="6" height="6"/></g>
<g transform="translate(902,902) scale(3.7766666666667)"><rect width="6" height="6"/></g>
<g transform="translate(242,924) scale(3.7766666666667)"><rect width="6" height="6"/></g>
<g transform="translate(308,924) scale(3.7766666666667)"><rect width="6" height="6"/></g>
<g transform="translate(330,924) scale(3.7766666666667)"><rect width="6" height="6"/></g>
<g transform="translate(418,924) scale(3.7766666666667)"><rect width="6" height="6"/></g>
<g transform="translate(484,924) scale(3.7766666666667)"><rect width="6" height="6"/></g>
<g transform="translate(528,924) scale(3.7766666666667)"><rect width="6" height="6"/></g>
<g transform="translate(572,924) scale(3.7766666666667)"><rect width="6" height="6"/></g>
<g transform="translate(594,924) scale(3.7766666666667)"><rect width="6" height="6"/></g>
<g transform="translate(616,924) scale(3.7766666666667)"><rect width="6" height="6"/></g>
<g transform="translate(682,924) scale(3.7766666666667)"><rect width="6" height="6"/></g>
<g transform="translate(726,924) scale(3.7766666666667)"><rect width="6" height="6"/></g>
<g transform="translate(814,924) scale(3.7766666666667)"><rect width="6" height="6"/></g>
<g transform="translate(836,924) scale(3.7766666666667)"><rect width="6" height="6"/></g>
<g transform="translate(880,924) scale(3.7766666666667)"><rect width="6" height="6"/></g>
<g transform="translate(44,44)"><g transform="scale(11)"><path d="M0,0v14h14V0H0z M12,12H2V2h10V12z"/></g></g>
<g transform="translate(792,44)"><g transform="scale(11)"><path d="M0,0v14h14V0H0z M12,12H2V2h10V12z"/></g></g>
<g transform="translate(44,792)"><g transform="scale(11)"><path d="M0,0v14h14V0H0z M12,12H2V2h10V12z"/></g></g>
<g transform="translate(88,88)"><g transform="scale(11)"><rect width="6" height="6"/></g></g>
<g transform="translate(836,88)"><g transform="scale(11)"><rect width="6" height="6"/></g></g>
<g transform="translate(88,836)"><g transform="scale(11)"><rect width="6" height="6"/></g></g>
</g></svg>
